<svg width="213" height="185" viewBox="0 0 213 185" fill="none" xmlns="http://www.w3.org/2000/svg">
<g clip-path="url(#clip0_6737_28274)">
<rect width="212.265" height="184.821" transform="translate(0.367188)" fill="white"/>
<path d="M26.8047 33.8465V125.509H62.5713H98.3379V33.8465C97.619 24.4405 85.0378 3.29248 62.5713 3.29248C37.9482 3.29248 27.5236 24.4405 26.8047 33.8465Z" fill="#E6F6FA" stroke="#CCEDFA" stroke-width="2.24026"/>
<path d="M62.2656 125.919V2.68652" stroke="#CCEDFA" stroke-width="2.24026"/>
<path d="M26.9375 33.9668H98.1269" stroke="#CCEDFA" stroke-width="2.24026"/>
<path d="M26.9375 64.5903H98.1269" stroke="#CCEDFA" stroke-width="2.24026"/>
<path d="M26.9375 97.8687H98.1269" stroke="#CCEDFA" stroke-width="2.24026"/>
<path d="M62.3672 34.2744L84.8715 11.7705" stroke="#CCEDFA" stroke-width="2.24026"/>
<path d="M62.6083 34.0361L39.9609 11.3901" stroke="#CCEDFA" stroke-width="2.24026"/>
<ellipse opacity="0.15" cx="109.577" cy="170.942" rx="66.6477" ry="3.36039" fill="#004364"/>
<path fill-rule="evenodd" clip-rule="evenodd" d="M88.5078 35.2517C86.0997 32.4951 84.4508 29.1007 84.6717 25.2715C85.3083 14.2384 100.683 16.4728 103.737 21.9995C106.791 27.5261 106.612 41.6433 102.767 42.6856C101.233 43.1012 97.9437 42.1705 94.5831 40.2014L96.8608 54.9876L84.4983 55.1411L88.5078 35.2517Z" fill="#B28B67"/>
<path fill-rule="evenodd" clip-rule="evenodd" d="M95.0302 26.3604C95.5853 32.9464 96.878 36.2268 98.9084 36.2015C101.954 36.1637 104.514 34.1981 105.85 34.1815C106.825 34.1694 106.622 35.3912 105.988 36.3031C105.464 37.0554 102.879 37.8064 102.893 38.9626C102.907 40.1187 104.946 39.1988 104.955 39.8845C104.969 41.0186 105.356 43.1466 103.387 43.1711C101.395 43.1958 95.1153 42.9639 94.0997 40.0193C93.4443 38.1189 93.5453 33.7468 93.2856 27.749C93.1646 27.7361 93.0415 27.7303 92.9168 27.7318C91.2099 27.753 89.8433 29.1539 89.8645 30.8608C89.8753 31.7273 90.2416 32.5061 90.8231 33.0602C90.1205 34.0785 89.3321 35.1429 88.4273 36.2423C84.9514 34.2152 81.8126 27.5095 85.1134 21.6465C86.0103 18.7833 88.9221 17.2007 91.0893 17.1738C93.0981 16.304 95.1931 16.1828 96.9688 16.6672C100.441 16.9216 103.552 17.9408 104.437 18.558C104.478 21.8419 103.854 22.8242 98.4179 22.8058C97.0912 23.5277 96.0797 24.7549 95.0302 26.3604Z" fill="#262626"/>
<g clip-path="url(#clip1_6737_28274)">
<path d="M83.725 170.978C103.731 170.978 119.95 155.401 119.95 136.186C119.95 116.97 103.731 101.394 83.725 101.394C63.7185 101.394 47.5 116.97 47.5 136.186C47.5 155.401 63.7185 170.978 83.725 170.978Z" fill="#CCEDFA"/>
<path opacity="0.15" d="M118.968 139.848C115.335 151.441 98.8643 154.829 81.3362 149.349C63.808 143.868 54.4293 126.896 58.0624 115.303C61.6954 103.71 78.85 98.7552 96.3782 104.236C113.906 109.716 122.601 128.256 118.968 139.848Z" fill="#004364"/>
<path fill-rule="evenodd" clip-rule="evenodd" d="M152.176 165.609C146.148 152.186 141.789 140.497 140.039 134.33C137.043 123.77 134.764 114.479 134.187 111.009C132.814 102.734 144.755 102.252 146.333 106.364C148.722 112.589 152.893 133.039 157.904 163.928L152.176 165.609ZM82.2564 123.482C87.7869 121.282 107.155 114.399 116.496 112.452C119.18 111.892 121.781 111.372 124.227 110.902C131.498 109.506 135.264 122.703 128.262 123.717C110.824 126.242 86.1021 128.85 83.9864 129.142C81.0213 129.553 78.7806 124.864 82.2564 123.482Z" fill="#B28B67"/>
<path fill-rule="evenodd" clip-rule="evenodd" d="M128.696 107.271L98.7812 91.9484V88.6128H102.339C131.28 96.0331 146.069 100.788 146.706 102.879C146.713 102.901 146.719 102.924 146.725 102.946C146.739 102.966 146.754 102.985 146.768 103.004C152.503 110.941 155.938 149.689 157.066 152.59L146.075 154.24C141.871 138.554 128.42 127.626 128.777 108.839C128.681 108.288 128.656 107.765 128.696 107.271Z" fill="#005F8D"/>
<path fill-rule="evenodd" clip-rule="evenodd" d="M101.265 116.371C98.5282 115.82 96.0076 115.328 93.8507 114.947C79.919 112.488 75.8564 104.985 78.2584 88.6128L103.927 88.6128C108.121 89.8247 129.912 99.0195 141.218 103.91C148.701 107.147 146.342 118.815 142.104 121.852C142.081 122.038 142.005 122.165 141.869 122.221C119.074 131.728 101.04 126.74 95.0162 128.333L92.2297 119.489L101.265 116.371Z" fill="#00A6CA"/>
<path fill-rule="evenodd" clip-rule="evenodd" d="M84.1639 122.08C82.668 122.226 81.6059 122.454 80.9775 122.762C80.2134 123.138 79.1601 123.813 77.8177 124.789C78.2485 125.678 82.1196 133.673 89.4311 148.772C91.7862 148.386 92.7206 147.482 92.2341 146.059C91.7476 144.636 91.3553 143.447 91.0572 142.494L90.6119 128.915C90.6033 128.653 90.3855 128.449 90.1255 128.458C90.121 128.459 90.1166 128.459 90.1121 128.459L88.033 128.594C86.8531 127.634 86.0749 126.766 85.6986 125.989C85.3929 125.358 85.2247 124.361 85.1943 122.999C85.1826 122.476 84.7513 122.063 84.2311 122.076C84.2086 122.077 84.1862 122.078 84.1639 122.08Z" fill="#262626"/>
</g>
<path fill-rule="evenodd" clip-rule="evenodd" d="M149.799 163.152C149.271 164.562 149.008 165.618 149.008 166.318C149.008 167.169 149.149 168.412 149.433 170.046C150.419 170.046 159.28 170.046 176.017 170.046C176.708 167.757 176.309 166.522 174.821 166.34C173.332 166.157 172.096 165.993 171.111 165.846L158.755 160.327C158.517 160.22 158.239 160.328 158.133 160.566C158.131 160.57 158.129 160.574 158.127 160.578L157.333 162.508C155.955 163.152 154.836 163.474 153.974 163.474C153.274 163.474 152.308 163.191 151.074 162.625C150.601 162.407 150.042 162.616 149.825 163.09C149.815 163.11 149.807 163.131 149.799 163.152Z" fill="#262626"/>
<g clip-path="url(#clip2_6737_28274)">
<path d="M126.855 88.1552L119.747 79.3912L112.412 81.3651L123.187 90.0667C125.462 95.1606 126.904 97.4299 127.514 96.8746C128.427 96.0416 127.355 94.7475 127.88 94.0853C128.406 93.4231 130.713 94.1904 132.871 95.012C135.03 95.8336 134.674 94.6624 134.284 94.0206C132.425 92.0077 129.949 90.0525 126.855 88.1552Z" fill="#B28B67"/>
<path fill-rule="evenodd" clip-rule="evenodd" d="M93.6334 46.9565L97.0631 43.8467C102.893 80.0584 111.35 68.5637 122.401 80.0584C125.5 83.2817 124.212 85.0331 125.205 85.846L121.775 89.0533C121.005 88.1555 120.097 88.4742 118.124 89.0531C115.795 90.1814 87.8827 101.977 93.6334 46.9565Z" fill="#FFC700"/>
<path d="M108.339 89.0018C111.661 78.6617 96.7458 72.0868 97.1493 46.3113V44.6283C97.2117 43.7372 95.2718 41.1588 94.1478 41.1588L85.0376 39.6583C84.1457 39.596 83.3721 40.2678 83.3097 41.1588L83.1571 43.3384C76.8789 46.6281 65.8625 59.8478 72.0229 86.409C72.1176 90.864 72.9521 94.9616 74.7915 98.3496C79.3356 106.719 105.595 97.5405 108.339 89.0018Z" fill="#FDE866"/>
<path d="M80.8411 62.5781C77.4228 76.8426 80.5123 94.5652 82.4794 101.602C79.7128 101.602 76.9111 101.114 75.2244 99.023C70.2334 92.836 77.3141 73.3723 80.8411 62.5781Z" fill="#FFC700"/>
<path d="M120.586 111.681L101.49 116.567L93.2109 114.871L120.586 111.681Z" fill="#005F8D"/>
</g>
<path fill-rule="evenodd" clip-rule="evenodd" d="M67.7013 74.7864L76.5664 74.5347C70.512 96.443 67.2931 107.915 66.9096 108.952C66.0469 111.284 68.1416 114.726 69.0498 116.583C66.3284 117.897 66.4768 113.351 63.0458 115.069C59.9142 116.638 57.5814 119.373 53.8366 117.244C53.3762 116.982 52.848 115.958 54.0174 115.106C56.9308 112.985 61.109 109.303 61.6515 108.117C62.3912 106.501 64.4078 95.3905 67.7013 74.7864Z" fill="#B28B67"/>
<path d="M67.4198 108.775L61.4878 107.809L62.2085 105.104C58.9794 105.012 62.0444 79.4502 65.8558 65.674C69.6671 51.8979 77.6446 43.4058 81.767 46.7923C85.8893 50.1787 74.965 85.9484 74.3467 93.568C73.852 99.6637 69.0878 106.609 68.0863 106.375L67.4198 108.775Z" fill="#FDE866"/>
<path d="M141.068 96.1418L138.664 94.9443L150.2 74.1165L154.498 70.8936L141.068 96.1418Z" fill="#CCEDFA"/>
<rect x="140.461" y="97.1255" width="30.1485" height="2.38037" rx="1.12013" transform="rotate(-62.364 140.461 97.1255)" fill="#595959"/>
<rect x="109.398" y="94.7236" width="33.6381" height="2.38037" rx="1.12013" transform="rotate(2.26375 109.398 94.7236)" fill="#595959"/>
<path d="M121.269 94.0396L110.234 94.7912L141.055 95.9786L138.646 94.9148L121.269 94.0396Z" fill="#BFBFBF"/>
<path d="M159.526 53.5654L157.953 60.7994L166.328 54.4694L159.526 53.5654Z" fill="#EB0000"/>
<path d="M170.613 58.2521C179.512 58.2521 186.726 51.0381 186.726 42.1392C186.726 33.2403 179.512 26.0264 170.613 26.0264C161.714 26.0264 154.5 33.2403 154.5 42.1392C154.5 51.0381 161.714 58.2521 170.613 58.2521Z" fill="#EB0000"/>
<path d="M171.927 32.6444L171.733 45.6772C171.733 47.3164 169.49 47.3164 169.49 45.6772L169.297 32.6444C169.297 31.5344 171.927 31.4304 171.927 32.6444Z" fill="white"/>
<path d="M169.536 50.7954C169.835 51.0951 170.194 51.245 170.613 51.245C170.896 51.245 171.15 51.1771 171.377 51.0414C171.608 50.9 171.792 50.7134 171.928 50.4815C172.069 50.2496 172.14 49.9951 172.14 49.718C172.14 49.2994 171.99 48.9403 171.69 48.6405C171.391 48.3408 171.032 48.1909 170.613 48.1909C170.194 48.1909 169.835 48.3408 169.536 48.6405C169.236 48.9403 169.086 49.2994 169.086 49.718C169.086 50.1365 169.236 50.4956 169.536 50.7954Z" fill="white"/>
</g>
<defs>
<clipPath id="clip0_6737_28274">
<rect width="212.265" height="184.821" fill="white" transform="translate(0.367188)"/>
</clipPath>
<clipPath id="clip1_6737_28274">
<rect width="141.136" height="113.133" fill="white" transform="translate(24.4531 88.6128)"/>
</clipPath>
<clipPath id="clip2_6737_28274">
<rect width="103.612" height="75.6088" fill="white" transform="translate(39.5703 41.5674)"/>
</clipPath>
</defs>
</svg>
